<svg width="83" height="83" viewBox="0 0 83 83" fill="none" xmlns="http://www.w3.org/2000/svg">
<path d="M41.5 0.8125C19.0311 0.8125 0.8125 19.0311 0.8125 41.5C0.8125 63.9689 19.0311 82.1875 41.5 82.1875C63.9689 82.1875 82.1875 63.9689 82.1875 41.5C82.1875 19.0311 63.9689 0.8125 41.5 0.8125ZM54.5872 42.1267L34.7521 56.558C34.6433 56.6361 34.5151 56.6828 34.3816 56.6928C34.2481 56.7029 34.1144 56.6759 33.9952 56.6149C33.876 56.5539 33.7759 56.4612 33.7059 56.347C33.636 56.2328 33.5988 56.1016 33.5986 55.9677V27.1231C33.5982 26.989 33.6349 26.8573 33.7047 26.7427C33.7745 26.6281 33.8747 26.5351 33.9942 26.474C34.1136 26.4129 34.2476 26.386 34.3814 26.3964C34.5152 26.4068 34.6435 26.454 34.7521 26.5328L54.5872 40.9551C54.6809 41.0214 54.7574 41.1091 54.8101 41.2111C54.8629 41.313 54.8904 41.4261 54.8904 41.5409C54.8904 41.6556 54.8629 41.7687 54.8101 41.8707C54.7574 41.9726 54.6809 42.0604 54.5872 42.1267Z" fill="white"/>
</svg>
