<svg width="15" height="15" viewBox="0 0 15 15" fill="none" xmlns="http://www.w3.org/2000/svg">
<path d="M14.2191 11.5692L11.001 8.64316C10.8489 8.5049 10.649 8.43116 10.4435 8.43751C10.238 8.44386 10.0431 8.52981 9.89977 8.67721L8.00531 10.6255C7.54931 10.5384 6.63256 10.2526 5.68889 9.31133C4.74522 8.36687 4.45943 7.44775 4.37472 6.99491L6.32143 5.09966C6.46901 4.95647 6.55508 4.76148 6.56143 4.55595C6.56779 4.35042 6.49392 4.15049 6.35547 3.99845L3.43026 0.781121C3.29176 0.628612 3.09925 0.536103 2.89364 0.523243C2.68802 0.510383 2.48549 0.578184 2.32906 0.712246L0.61114 2.18554C0.47427 2.3229 0.392576 2.50573 0.381557 2.69933C0.369682 2.89725 0.143265 7.5855 3.7786 11.2224C6.95001 14.393 10.9226 14.625 12.0167 14.625C12.1766 14.625 12.2748 14.6202 12.3009 14.6187C12.4945 14.6078 12.6772 14.5258 12.8139 14.3883L14.2864 12.6696C14.421 12.5136 14.4893 12.3113 14.4767 12.1057C14.4641 11.9001 14.3717 11.7075 14.2191 11.5692Z" fill="#DCD7C0"/>
<path d="M14.2191 11.5692L11.001 8.64316C10.8489 8.5049 10.649 8.43116 10.4435 8.43751C10.238 8.44386 10.0431 8.52981 9.89977 8.67721L8.00531 10.6255C7.54931 10.5384 6.63256 10.2526 5.68889 9.31133C4.74522 8.36687 4.45943 7.44775 4.37472 6.99491L6.32143 5.09966C6.46901 4.95647 6.55508 4.76148 6.56143 4.55595C6.56779 4.35042 6.49392 4.15049 6.35547 3.99845L3.43026 0.781121C3.29176 0.628612 3.09925 0.536103 2.89364 0.523243C2.68802 0.510383 2.48549 0.578184 2.32906 0.712246L0.61114 2.18554C0.47427 2.3229 0.392576 2.50573 0.381557 2.69933C0.369682 2.89725 0.143265 7.5855 3.7786 11.2224C6.95001 14.393 10.9226 14.625 12.0167 14.625C12.1766 14.625 12.2748 14.6202 12.3009 14.6187C12.4945 14.6078 12.6772 14.5258 12.8139 14.3883L14.2864 12.6696C14.421 12.5136 14.4893 12.3113 14.4767 12.1057C14.4641 11.9001 14.3717 11.7075 14.2191 11.5692Z" fill="url(#paint0_linear)"/>
<defs>
<linearGradient id="paint0_linear" x1="4.96305" y1="0.521693" x2="9.86905" y2="2.02073" gradientUnits="userSpaceOnUse">
<stop stop-color="#E0DEDE"/>
<stop offset="0.983598" stop-color="#A2A0A0"/>
</linearGradient>
</defs>
</svg>
